<?xml version="1.0" encoding="UTF-8" standalone="no"?>
<!-- Created with Inkscape (http://www.inkscape.org/) -->

<svg
   xmlns:dc="http://purl.org/dc/elements/1.1/"
   xmlns:cc="http://creativecommons.org/ns#"
   xmlns:rdf="http://www.w3.org/1999/02/22-rdf-syntax-ns#"
   xmlns:svg="http://www.w3.org/2000/svg"
   xmlns="http://www.w3.org/2000/svg"
   xmlns:sodipodi="http://sodipodi.sourceforge.net/DTD/sodipodi-0.dtd"
   xmlns:inkscape="http://www.inkscape.org/namespaces/inkscape"
   width="196.625mm"
   height="196.625mm"
   viewBox="0 0 196.625 196.625"
   version="1.1"
   id="svg8"
   inkscape:version="0.92.4 (5da689c313, 2019-01-14)"
   sodipodi:docname="vince.svg">
  <defs
     id="defs2" />
  <sodipodi:namedview
     id="base"
     pagecolor="#ffffff"
     bordercolor="#666666"
     borderopacity="1.0"
     inkscape:pageopacity="0.0"
     inkscape:pageshadow="2"
     inkscape:zoom="0.7"
     inkscape:cx="65.389831"
     inkscape:cy="380.3107"
     inkscape:document-units="mm"
     inkscape:current-layer="layer1"
     showgrid="false"
     fit-margin-top="10"
     fit-margin-left="10"
     fit-margin-right="10"
     fit-margin-bottom="10"
     inkscape:window-width="1920"
     inkscape:window-height="1017"
     inkscape:window-x="1912"
     inkscape:window-y="-8"
     inkscape:window-maximized="1" />
  <metadata
     id="metadata5">
    <rdf:RDF>
      <cc:Work
         rdf:about="">
        <dc:format>image/svg+xml</dc:format>
        <dc:type
           rdf:resource="http://purl.org/dc/dcmitype/StillImage" />
        <dc:title></dc:title>
      </cc:Work>
    </rdf:RDF>
  </metadata>
  <g
     inkscape:label="Layer 1"
     inkscape:groupmode="layer"
     id="layer1"
     transform="translate(-6.3869095,-8.5654831)">
    <ellipse
       style="fill:none;fill-opacity:1;stroke:#000000;stroke-width:2;stroke-miterlimit:4;stroke-dasharray:none;stroke-opacity:1"
       id="path817"
       cx="104.69941"
       cy="106.87798"
       r="87.3125" />
    <path
       style="fill:#7d4480;fill-opacity:1;stroke:none;stroke-width:10.79865074;stroke-miterlimit:4;stroke-dasharray:none;stroke-opacity:1"
       d="M 345.38983,696.24289 C 279.7071,690.28548 217.23464,665.05424 166.10412,623.83334 140.5581,603.23841 111.07805,569.35065 93.152383,539.97424 47.487929,465.13975 34.31913,371.23028 57.583038,286.32174 89.042979,171.49934 179.73628,83.410336 295.5635,55.174999 c 26.24146,-6.396912 45.3951,-8.585777 75.54062,-8.632729 28.95752,-0.0451 42.23631,1.30655 69.35298,7.059464 68.53179,14.539303 134.67839,54.197826 179.30032,107.500396 98.77733,117.99323 103.1673,283.77056 10.78975,407.45106 -19.68318,26.35302 -53.9123,57.88083 -84.42822,77.76533 -34.32108,22.36396 -83.34753,40.68066 -126.44341,47.24032 -14.45951,2.20088 -61.05198,3.88435 -74.28571,2.68405 z"
       id="path881"
       inkscape:connector-curvature="0"
       transform="matrix(0.26458333,0,0,0.26458333,6.3869095,8.5654831)" />
  </g>
</svg>
